<svg width="160" height="32" viewBox="0 0 160 32" fill="none" xmlns="http://www.w3.org/2000/svg">
<path d="M111.049 2.92705C111.348 2.00574 112.652 2.00574 112.951 2.92705L115.368 10.3647C115.502 10.7768 115.886 11.0557 116.319 11.0557H124.139C125.108 11.0557 125.511 12.2953 124.727 12.8647L118.4 17.4615C118.05 17.7161 117.903 18.1675 118.037 18.5795L120.454 26.0172C120.753 26.9385 119.698 27.7047 118.915 27.1353L112.588 22.5385C112.237 22.2839 111.763 22.2839 111.412 22.5385L105.085 27.1353C104.302 27.7047 103.247 26.9385 103.546 26.0172L105.963 18.5795C106.097 18.1675 105.95 17.7161 105.6 17.4615L99.273 12.8647C98.4893 12.2953 98.8921 11.0557 99.8608 11.0557H107.681C108.114 11.0557 108.498 10.7768 108.632 10.3647L111.049 2.92705Z" fill="#73AFD7"/>
<path d="M143.049 2.92705C143.348 2.00574 144.652 2.00574 144.951 2.92705L147.368 10.3647C147.502 10.7768 147.886 11.0557 148.319 11.0557H156.139C157.108 11.0557 157.511 12.2953 156.727 12.8647L150.4 17.4615C150.05 17.7161 149.903 18.1675 150.037 18.5795L152.454 26.0172C152.753 26.9385 151.698 27.7047 150.915 27.1353L144.588 22.5385C144.237 22.2839 143.763 22.2839 143.412 22.5385L137.085 27.1353C136.302 27.7047 135.247 26.9385 135.546 26.0172L137.963 18.5795C138.097 18.1675 137.95 17.7161 137.6 17.4615L131.273 12.8647C130.489 12.2953 130.892 11.0557 131.861 11.0557H139.681C140.114 11.0557 140.498 10.7768 140.632 10.3647L143.049 2.92705Z" fill="#73AFD7"/>
<path d="M79.0489 2.92705C79.3483 2.00574 80.6517 2.00574 80.9511 2.92705L83.3677 10.3647C83.5016 10.7768 83.8855 11.0557 84.3188 11.0557H92.1392C93.1079 11.0557 93.5107 12.2953 92.727 12.8647L86.4001 17.4615C86.0496 17.7161 85.903 18.1675 86.0369 18.5795L88.4535 26.0172C88.7529 26.9385 87.6984 27.7047 86.9147 27.1353L80.5878 22.5385C80.2373 22.2839 79.7627 22.2839 79.4122 22.5385L73.0853 27.1353C72.3016 27.7047 71.2471 26.9385 71.5465 26.0172L73.9631 18.5795C74.097 18.1675 73.9504 17.7161 73.5999 17.4615L67.273 12.8647C66.4893 12.2953 66.8921 11.0557 67.8608 11.0557H75.6812C76.1145 11.0557 76.4984 10.7768 76.6323 10.3647L79.0489 2.92705Z" fill="#73AFD7"/>
<path d="M47.0489 2.92705C47.3483 2.00574 48.6517 2.00574 48.9511 2.92705L51.3677 10.3647C51.5016 10.7768 51.8855 11.0557 52.3188 11.0557H60.1392C61.1079 11.0557 61.5107 12.2953 60.727 12.8647L54.4001 17.4615C54.0496 17.7161 53.903 18.1675 54.0369 18.5795L56.4535 26.0172C56.7529 26.9385 55.6984 27.7047 54.9147 27.1353L48.5878 22.5385C48.2373 22.2839 47.7627 22.2839 47.4122 22.5385L41.0853 27.1353C40.3016 27.7047 39.2471 26.9385 39.5465 26.0172L41.9631 18.5795C42.097 18.1675 41.9504 17.7161 41.5999 17.4615L35.273 12.8647C34.4893 12.2953 34.8921 11.0557 35.8608 11.0557H43.6812C44.1145 11.0557 44.4984 10.7768 44.6323 10.3647L47.0489 2.92705Z" fill="#73AFD7"/>
<path d="M15.0489 2.92705C15.3483 2.00574 16.6517 2.00574 16.9511 2.92705L19.3677 10.3647C19.5016 10.7768 19.8855 11.0557 20.3188 11.0557H28.1392C29.1079 11.0557 29.5107 12.2953 28.727 12.8647L22.4001 17.4615C22.0496 17.7161 21.903 18.1675 22.0369 18.5795L24.4535 26.0172C24.7529 26.9385 23.6984 27.7047 22.9147 27.1353L16.5878 22.5385C16.2373 22.2839 15.7627 22.2839 15.4122 22.5385L9.08533 27.1353C8.30162 27.7047 7.24714 26.9385 7.54649 26.0172L9.96315 18.5795C10.097 18.1675 9.95036 17.7161 9.59987 17.4615L3.27299 12.8647C2.48928 12.2953 2.89206 11.0557 3.86078 11.0557H11.6812C12.1145 11.0557 12.4984 10.7768 12.6323 10.3647L15.0489 2.92705Z" fill="#73AFD7"/>
<g clip-path="url(#clip0_84:116)">
<path d="M143.049 2.92705C143.348 2.00574 144.652 2.00574 144.951 2.92705L147.368 10.3647C147.502 10.7768 147.886 11.0557 148.319 11.0557H156.139C157.108 11.0557 157.511 12.2953 156.727 12.8647L150.4 17.4615C150.05 17.7161 149.903 18.1675 150.037 18.5795L152.454 26.0172C152.753 26.9385 151.698 27.7047 150.915 27.1353L144.588 22.5385C144.237 22.2839 143.763 22.2839 143.412 22.5385L137.085 27.1353C136.302 27.7047 135.247 26.9385 135.546 26.0172L137.963 18.5795C138.097 18.1675 137.95 17.7161 137.6 17.4615L131.273 12.8647C130.489 12.2953 130.892 11.0557 131.861 11.0557H139.681C140.114 11.0557 140.498 10.7768 140.632 10.3647L143.049 2.92705Z" fill="#73AFD7"/>
</g>
<defs>
<clipPath id="clip0_84:116">
<rect width="16" height="32" fill="white" transform="translate(128)"/>
</clipPath>
</defs>
</svg>
