<svg width="160" height="32" viewBox="0 0 160 32" fill="none" xmlns="http://www.w3.org/2000/svg">
<path d="M16.4755 3.08156L18.8922 10.5193C19.093 11.1373 19.6689 11.5557 20.3188 11.5557H28.1392C28.6236 11.5557 28.825 12.1755 28.4331 12.4602L22.1062 17.057C21.5805 17.439 21.3605 18.116 21.5613 18.734L23.978 26.1717C24.1277 26.6324 23.6004 27.0154 23.2086 26.7307L16.8817 22.134C16.3559 21.752 15.6441 21.752 15.1183 22.134L8.79144 26.7307C8.39959 27.0154 7.87234 26.6324 8.02202 26.1717L10.4387 18.734C10.6395 18.116 10.4195 17.439 9.89377 17.057L3.56688 12.4602C3.17503 12.1755 3.37641 11.5557 3.86078 11.5557H11.6812C12.3311 11.5557 12.907 11.1373 13.1078 10.5193L15.5245 3.08156C15.6741 2.6209 16.3259 2.6209 16.4755 3.08156Z" stroke="#949494"/>
<path d="M48.4755 3.08156L50.8922 10.5193C51.093 11.1373 51.6689 11.5557 52.3188 11.5557H60.1392C60.6236 11.5557 60.825 12.1755 60.4331 12.4602L54.1062 17.057C53.5805 17.439 53.3605 18.116 53.5613 18.734L55.978 26.1717C56.1277 26.6324 55.6004 27.0154 55.2086 26.7307L48.8817 22.134C48.3559 21.752 47.6441 21.752 47.1183 22.134L40.7914 26.7307C40.3996 27.0154 39.8723 26.6324 40.022 26.1717L42.4387 18.734C42.6395 18.116 42.4195 17.439 41.8938 17.057L35.5669 12.4602C35.175 12.1755 35.3764 11.5557 35.8608 11.5557H43.6812C44.3311 11.5557 44.907 11.1373 45.1078 10.5193L47.5245 3.08156C47.6741 2.6209 48.3259 2.6209 48.4755 3.08156Z" stroke="#949494"/>
<path d="M80.4755 3.08156L82.8922 10.5193C83.093 11.1373 83.6689 11.5557 84.3188 11.5557H92.1392C92.6236 11.5557 92.825 12.1755 92.4331 12.4602L86.1062 17.057C85.5805 17.439 85.3605 18.116 85.5613 18.734L87.978 26.1717C88.1277 26.6324 87.6004 27.0154 87.2086 26.7307L80.8817 22.134C80.3559 21.752 79.6441 21.752 79.1183 22.134L72.7914 26.7307C72.3996 27.0154 71.8723 26.6324 72.022 26.1717L74.4387 18.734C74.6395 18.116 74.4195 17.439 73.8938 17.057L67.5669 12.4602C67.175 12.1755 67.3764 11.5557 67.8608 11.5557H75.6812C76.3311 11.5557 76.907 11.1373 77.1078 10.5193L79.5245 3.08156C79.6741 2.6209 80.3259 2.6209 80.4755 3.08156Z" stroke="#949494"/>
<path d="M112.476 3.08156L114.892 10.5193C115.093 11.1373 115.669 11.5557 116.319 11.5557H124.139C124.624 11.5557 124.825 12.1755 124.433 12.4602L118.106 17.057C117.58 17.439 117.361 18.116 117.561 18.734L119.978 26.1717C120.128 26.6324 119.6 27.0154 119.209 26.7307L112.882 22.134C112.356 21.752 111.644 21.752 111.118 22.134L104.791 26.7307C104.4 27.0154 103.872 26.6324 104.022 26.1717L106.439 18.734C106.639 18.116 106.419 17.439 105.894 17.057L99.5669 12.4602C99.175 12.1755 99.3764 11.5557 99.8608 11.5557H107.681C108.331 11.5557 108.907 11.1373 109.108 10.5193L111.524 3.08156C111.674 2.6209 112.326 2.6209 112.476 3.08156Z" stroke="#949494"/>
<path d="M144.476 3.08156L146.892 10.5193C147.093 11.1373 147.669 11.5557 148.319 11.5557H156.139C156.624 11.5557 156.825 12.1755 156.433 12.4602L150.106 17.057C149.58 17.439 149.361 18.116 149.561 18.734L151.978 26.1717C152.128 26.6324 151.6 27.0154 151.209 26.7307L144.882 22.134C144.356 21.752 143.644 21.752 143.118 22.134L136.791 26.7307C136.4 27.0154 135.872 26.6324 136.022 26.1717L138.439 18.734C138.639 18.116 138.419 17.439 137.894 17.057L131.567 12.4602C131.175 12.1755 131.376 11.5557 131.861 11.5557H139.681C140.331 11.5557 140.907 11.1373 141.108 10.5193L143.524 3.08156C143.674 2.6209 144.326 2.6209 144.476 3.08156Z" stroke="#949494"/>
</svg>
